<?xml version="1.0" standalone="no"?>
<!DOCTYPE svg PUBLIC "-//W3C//DTD SVG 20010904//EN"
 "http://www.w3.org/TR/2001/REC-SVG-20010904/DTD/svg10.dtd">
<svg version="1.0" xmlns="http://www.w3.org/2000/svg"
 width="973.000000pt" height="446.000000pt" viewBox="0 0 973.000000 446.000000"
 preserveAspectRatio="xMidYMid meet">
<metadata>
Created by potrace 1.16, written by Peter Selinger 2001-2019
</metadata>
<g transform="translate(0.000000,446.000000) scale(0.100000,-0.100000)"
fill="#7c3aed" stroke="none">
<path d="M1870 4394 c-356 -54 -711 -211 -997 -440 -561 -450 -870 -1159 -814
-1870 33 -430 159 -782 405 -1134 330 -473 860 -801 1426 -881 144 -21 454
-16 600 9 446 76 834 280 1257 661 209 188 384 368 912 936 860 925 993 1066
1221 1304 274 285 413 415 575 535 261 195 516 314 807 378 88 19 134 22 308
22 174 1 221 -3 312 -22 754 -158 1280 -785 1324 -1579 18 -334 -79 -706 -259
-991 -33 -53 -42 -62 -51 -50 -6 8 -121 140 -256 293 -595 678 -702 785 -873
883 -252 145 -517 147 -763 6 -117 -66 -166 -108 -375 -322 -396 -403 -449
-450 -563 -495 -72 -29 -192 -28 -266 2 -85 35 -138 80 -294 250 l-145 159
-163 -165 c-90 -90 -163 -170 -163 -177 0 -33 600 -668 841 -890 321 -297 614
-492 928 -616 756 -299 1613 -133 2194 424 449 432 692 999 692 1616 0 659
-282 1266 -785 1688 -309 260 -700 427 -1104 473 -151 17 -456 7 -598 -20
-298 -56 -597 -179 -863 -355 -235 -155 -444 -338 -741 -648 -412 -429 -776
-817 -1094 -1163 -376 -408 -436 -468 -516 -510 -121 -63 -235 -65 -358 -4
-91 45 -208 161 -419 418 -238 288 -314 374 -404 451 -353 303 -749 276 -1104
-77 -80 -80 -320 -352 -724 -820 -124 -144 -228 -262 -231 -262 -11 -1 -106
221 -134 314 -51 166 -66 260 -72 450 -6 201 8 336 53 505 81 302 221 548 434
761 298 300 668 462 1085 476 245 8 451 -28 678 -118 374 -149 673 -383 1307
-1021 l275 -276 163 169 163 169 -133 142 c-287 306 -593 600 -818 787 -446
371 -841 559 -1315 626 -129 19 -439 18 -565 -1z m554 -2131 c69 -34 178 -148
365 -378 352 -433 473 -547 678 -642 l75 -35 -33 -35 c-19 -19 -83 -78 -144
-130 -338 -293 -663 -449 -1026 -494 -121 -15 -343 -5 -470 20 -275 55 -559
199 -768 388 l-63 58 133 155 c462 538 780 904 838 963 157 161 278 199 415
130z m5053 -209 c26 -9 71 -31 98 -50 49 -32 208 -188 316 -309 270 -303 684
-780 684 -789 0 -19 -156 -124 -277 -186 -149 -77 -317 -133 -483 -161 -111
-18 -154 -21 -290 -16 -181 7 -299 28 -468 84 -249 82 -566 278 -799 492 l-51
47 78 37 c137 66 200 119 535 457 317 320 368 364 458 396 51 18 142 17 199
-2z"/>
</g>
</svg>
